<?xml version="1.0" encoding="UTF-8"?>
<svg version="1.1" xmlns="http://www.w3.org/2000/svg" width="294" height="236">
<path d="M0 0 C97.02 0 194.04 0 294 0 C294 77.88 294 155.76 294 236 C196.98 236 99.96 236 0 236 C0 158.12 0 80.24 0 0 Z " fill="#6C8ABE" transform="translate(0,0)"/>
<path d="M0 0 C56.43 0 112.86 0 171 0 C171 15.51 171 31.02 171 47 C155.16 47 139.32 47 123 47 C123 77.03 123 107.06 123 138 C114.00849575 131.25637181 114.00849575 131.25637181 111 128.16015625 C110.01 127.1537207 110.01 127.1537207 109 126.12695312 C108.34 125.44568359 107.68 124.76441406 107 124.0625 C102.48814738 119.43168251 97.92400722 114.98434253 93.02246094 110.76635742 C89.46069321 107.65561509 86.05375133 104.38072474 82.625 101.125 C75.44094842 94.3377518 75.44094842 94.3377518 68.1875 87.625 C67.45917969 86.95726562 66.73085937 86.28953125 65.98046875 85.6015625 C64.06267999 84.05068796 62.24673885 82.99967257 60 82 C59.2265625 82.78503906 58.453125 83.57007813 57.65625 84.37890625 C52.5966671 89.49064139 47.54096236 94.49843325 42.05859375 99.16015625 C38.93078203 101.95560088 36.01746403 104.96177012 33.07275391 107.94677734 C29.80619419 111.24058677 26.42097135 114.3148941 22.89453125 117.32421875 C20.84198069 119.13977378 18.92253994 121.04759536 17 123 C11.6555134 128.41798641 5.94055714 133.24755429 0 138 C0 92.46 0 46.92 0 0 Z " fill="#F1F1F6" transform="translate(123,49)"/>
<path d="M0 0 C24.09 0 48.18 0 73 0 C73 61.71 73 123.42 73 187 C48.91 187 24.82 187 0 187 C0 125.29 0 63.58 0 0 Z " fill="#F1F2F6" transform="translate(0,49)"/>
<path d="M0 0 C15.84 0 31.68 0 48 0 C48 46.2 48 92.4 48 140 C-6.12 140 -60.24 140 -116 140 C-109.27678571 132.15625 -109.27678571 132.15625 -106.25 129.625 C-103.16787805 126.99992275 -100.13018583 124.33814583 -97.125 121.625 C-96.28453125 120.86703125 -95.4440625 120.1090625 -94.578125 119.328125 C-93.72734375 118.55984375 -92.8765625 117.7915625 -92 117 C-82.5078125 108.42826705 -82.5078125 108.42826705 -78.125 104.625 C-77.53283691 104.07610107 -76.94067383 103.52720215 -76.33056641 102.96166992 C-74 101 -74 101 -71.01611328 99.19555664 C-66.27502213 95.89779996 -62.74488053 93.03419101 -61.32305908 87.24255371 C-60.301308 79.12756895 -60.56869968 70.97155071 -60.75 62.8125 C-60.76198728 60.30926503 -60.76855003 57.80599786 -60.76953125 55.30273438 C-60.7836671 49.20004714 -60.86530798 43.10115445 -61 37 C-57.31547071 37 -56.91443014 37.68963731 -54.33984375 40.18359375 C-53.63400146 40.85914307 -52.92815918 41.53469238 -52.20092773 42.23071289 C-51.08053101 43.32307251 -51.08053101 43.32307251 -49.9375 44.4375 C-48.38617022 45.92526531 -46.83409214 47.41225076 -45.28125 48.8984375 C-44.53617187 49.61483398 -43.79109375 50.33123047 -43.0234375 51.06933594 C-40.70356856 53.28284023 -38.33624017 55.43485033 -35.9375 57.5625 C-31.50117229 61.51860667 -27.15162715 65.56297528 -22.8125 69.625 C-22.14661865 70.24705322 -21.4807373 70.86910645 -20.79467773 71.51000977 C-17.09617712 74.98031579 -13.47108357 78.50094051 -9.94018555 82.14208984 C-7.0745972 84.88616023 -4.01239483 87.41794729 -1 90 C-0.67 60.3 -0.34 30.6 0 0 Z " fill="#6A88BB" transform="translate(246,96)"/>
<path d="M0 0 C0.99 0.33 1.98 0.66 3 1 C3.08547571 8.66863114 3.10032544 16.33512166 3.06713867 24.00415039 C3.06406519 26.6103009 3.07688729 29.21652231 3.10620117 31.82250977 C3.14565892 35.579605 3.12708222 39.33273184 3.09765625 43.08984375 C3.12223404 44.24645004 3.14681183 45.40305634 3.1721344 46.5947113 C3.05936175 53.01124329 2.26884262 56.44835275 -2.32250977 61.08813477 C-3.8561039 62.42206821 -5.41448752 63.72821403 -7 65 C-8.31606336 66.16264551 -9.62922569 67.3285967 -10.9375 68.5 C-11.91009766 69.3353125 -11.91009766 69.3353125 -12.90234375 70.1875 C-15.29917312 72.25850341 -17.65000182 74.37603218 -20 76.5 C-22.93678465 79.15113994 -25.88602542 81.78290171 -28.875 84.375 C-33.28749974 88.21583986 -37.5786253 92.18677337 -41.875 96.15625 C-42.63278748 96.82979774 -42.63278748 96.82979774 -43.40588379 97.51695251 C-45.05029435 99.00146511 -45.05029435 99.00146511 -46.5970459 100.78492737 C-50.50406159 104.83708924 -53.37830482 106.47275672 -59.04882812 106.79467773 C-61.37659635 106.79357941 -63.70456514 106.75461255 -66.03125 106.68359375 C-67.8787384 106.6687368 -67.8787384 106.6687368 -69.7635498 106.65357971 C-73.67693815 106.61456073 -77.58746705 106.52674925 -81.5 106.4375 C-84.16141729 106.39840436 -86.82280772 106.37043523 -89.484375 106.34179688 C-95.99055019 106.26483883 -102.49507078 106.14786978 -109 106 C-109 104 -109 104 -107.7421875 102.73046875 C-107.12601562 102.22128906 -106.50984375 101.71210938 -105.875 101.1875 C-101.75383133 97.68561249 -97.77162975 94.05741638 -93.8125 90.375 C-93.21872559 89.82481201 -92.62495117 89.27462402 -92.01318359 88.70776367 C-86.87311419 83.92682261 -81.94658712 78.95623023 -77.05859375 73.91796875 C-75.66312572 72.4949262 -74.26762686 71.07191242 -72.87036133 69.65063477 C-71.90976271 68.66974066 -70.95275868 67.68531424 -69.99926758 66.69750977 C-68.61190561 65.26172661 -67.21043217 63.83962114 -65.80859375 62.41796875 C-64.98157959 61.57000732 -64.15456543 60.7220459 -63.30249023 59.84838867 C-61 58 -61 58 -57 58 C-56.731875 57.443125 -56.46375 56.88625 -56.1875 56.3125 C-53.56249103 51.20064043 -50.67542288 47.49582817 -46.375 43.6875 C-45.21138194 42.63506205 -44.04866983 41.58162185 -42.88671875 40.52734375 C-42.2632959 39.9638623 -41.63987305 39.40038086 -40.99755859 38.81982422 C-37.35690615 35.50310174 -33.77360852 32.12546318 -30.1875 28.75 C-29.4951123 28.10119873 -28.80272461 27.45239746 -28.08935547 26.78393555 C-23.9340668 22.8760209 -19.86702828 18.89642937 -15.86499023 14.83154297 C-13.31181519 12.3241573 -10.61093138 10.00766828 -7.8984375 7.67578125 C-5.13597706 5.23731309 -2.57258941 2.63690415 0 0 Z " fill="#4C6EA6" transform="translate(183,130)"/>
<path d="M0 0 C53.64771785 -5.79494265 53.64771785 -5.79494265 68.58692932 5.03666687 C76.89228485 11.99718757 83.75732109 20.36433702 90.01464844 29.17602539 C92.65319076 32.77548107 95.69293278 35.57462685 99.11529541 38.42308044 C101.94348059 40.78940382 104.48791753 43.29951134 107 46 C107 46.66 107 47.32 107 48 C99.17167714 48.20337499 91.34403877 48.34316234 83.51367188 48.43945312 C80.85095037 48.47508565 78.19169215 48.53410739 75.52929688 48.60351562 C71.69617355 48.70091936 67.86538798 48.7460123 64.03125 48.78125 C62.84760864 48.82254028 61.66396729 48.86383057 60.44445801 48.90637207 C52.30079515 48.91076345 52.30079515 48.91076345 48.54345703 46.2800293 C46.53945492 44.27763701 44.78118804 42.19947042 43 40 C41.79409904 38.89082703 40.56765774 37.80311009 39.3125 36.75 C35.68200637 33.63204665 32.1843278 30.39047253 28.6875 27.125 C23.79212245 22.56259313 18.73517064 18.29185574 13.51171875 14.10546875 C10.35773297 11.46161441 7.49443968 8.60539755 4.65625 5.62890625 C2.893707 3.7933979 2.893707 3.7933979 0 2 C0 1.34 0 0.68 0 0 Z " fill="#4E6FA7" transform="translate(187,188)"/>
<path d="M0 0 C3.45105456 1.50491192 5.86724097 3.51583979 8.625 6.0625 C9.93984375 7.26712891 9.93984375 7.26712891 11.28125 8.49609375 C12.62703125 9.73552734 12.62703125 9.73552734 14 11 C15.70605611 12.54418633 17.41433079 14.08592569 19.125 15.625 C19.95515625 16.37265625 20.7853125 17.1203125 21.640625 17.890625 C23.70466549 19.73595922 25.78394121 21.56044485 27.875 23.375 C31.78362984 26.7792905 35.60160282 30.27989433 39.4128418 33.79223633 C43.60774022 37.65516917 47.85984246 41.45054686 52.13671875 45.22265625 C54 47 54 47 55 49 C19.36 49 -16.28 49 -53 49 C-46.27678571 41.15625 -46.27678571 41.15625 -43.25 38.625 C-40.16787805 35.99992275 -37.13018583 33.33814583 -34.125 30.625 C-33.28453125 29.86703125 -32.4440625 29.1090625 -31.578125 28.328125 C-30.72734375 27.55984375 -29.8765625 26.7915625 -29 26 C-19.51127959 17.43139793 -19.51127959 17.43139793 -15.0625 13.5625 C-9.96622486 9.12549659 -4.98838733 4.55740534 0 0 Z " fill="#F0F1F6" transform="translate(183,187)"/>
<path d="M0 0 C0.99 0.33 1.98 0.66 3 1 C2.95844438 8.77830579 2.88623027 16.55588945 2.79248047 24.33374023 C2.76421821 26.98080934 2.74303001 29.62796366 2.72900391 32.27514648 C2.7076479 36.07580362 2.66103273 39.87543037 2.609375 43.67578125 C2.60814636 44.86335526 2.60691772 46.05092926 2.60565186 47.27449036 C2.58593323 48.37540512 2.5662146 49.47631989 2.54589844 50.6105957 C2.53701599 51.58100296 2.52813354 52.55141022 2.51898193 53.55122375 C2 56 2 56 0.33276367 57.81555176 C-2.58568213 59.29737696 -4.599844 59.36153946 -7.87011719 59.34057617 C-9.05103943 59.34034958 -10.23196167 59.34012299 -11.44866943 59.33988953 C-12.71857727 59.32440567 -13.98848511 59.30892181 -15.296875 59.29296875 C-16.60078186 59.28872391 -17.90468872 59.28447906 -19.24810791 59.28010559 C-22.70718772 59.26867549 -26.16588698 59.23922477 -29.62481689 59.20599365 C-33.15737765 59.1752528 -36.69000016 59.16159172 -40.22265625 59.14648438 C-47.14859339 59.11435282 -54.0742784 59.06317904 -61 59 C-60.04287109 58.80664062 -60.04287109 58.80664062 -59.06640625 58.609375 C-56.85906517 58.21040956 -56.85906517 58.21040956 -55.9375 56.25 C-55.628125 55.5075 -55.31875 54.765 -55 54 C-52.7847991 49.76315944 -49.91367383 46.82124559 -46.375 43.6875 C-45.21138194 42.63506205 -44.04866983 41.58162185 -42.88671875 40.52734375 C-42.2632959 39.9638623 -41.63987305 39.40038086 -40.99755859 38.81982422 C-37.35690615 35.50310174 -33.77360852 32.12546318 -30.1875 28.75 C-29.4951123 28.10119873 -28.80272461 27.45239746 -28.08935547 26.78393555 C-23.9340668 22.8760209 -19.86702828 18.89642937 -15.86499023 14.83154297 C-13.31181519 12.3241573 -10.61093138 10.00766828 -7.8984375 7.67578125 C-5.13597706 5.23731309 -2.57258941 2.63690415 0 0 Z " fill="#5A7AAE" transform="translate(183,130)"/>
</svg>
