<?xml version="1.0" encoding="UTF-8"?>
<svg version="1.1" xmlns="http://www.w3.org/2000/svg" width="294" height="236">
<path d="M0 0 C97.02 0 194.04 0 294 0 C294 16.17 294 32.34 294 49 C237.57 49 181.14 49 123 49 C123.33 94.21 123.66 139.42 124 186 C126.31 183.69 128.62 181.38 131 179 C132.29608947 177.8356365 133.60502625 176.68504353 134.9375 175.5625 C137.74576347 173.14382221 140.39970593 170.64100317 143 168 C145.53972186 165.4207494 148.12451314 162.97782611 150.875 160.625 C154.06682509 157.88378551 157.04302977 154.99314112 160 152 C163.49849985 148.46422542 167.06303223 145.10503708 170.83984375 141.87109375 C173.60076452 139.47962712 176.30110025 137.02335049 179 134.5625 C179.94875 133.69753906 180.8975 132.83257812 181.875 131.94140625 C182.57625 131.30074219 183.2775 130.66007813 184 130 C189.20103137 134.38624838 194.19177059 138.9409808 199.125 143.625 C204.26658814 148.48607717 209.41724768 153.33481577 214.625 158.125 C235.79520699 177.61799575 235.79520699 177.61799575 242.58203125 184.64453125 C243.97697309 186.11130911 243.97697309 186.11130911 246 187 C246.495 141.955 246.495 141.955 247 96 C262.51 96 278.02 96 294 96 C294 142.2 294 188.4 294 236 C275.52 236 257.04 236 238 236 C236.35 234.35 234.7 232.7 233 231 C230.4166991 228.51942338 227.8009682 226.07374348 225.1875 223.625 C224.51396484 222.99078125 223.84042969 222.3565625 223.14648438 221.703125 C219.10165528 217.90988814 214.99212441 214.20826769 210.8059082 210.57177734 C208.5121051 208.57535929 206.25419418 206.54095959 204 204.5 C197.41956365 198.56450687 190.73178986 192.76254386 184 187 C183.38125 187.58116577 183.38125 187.58116577 182.75 188.17407227 C168.76550169 201.29819617 168.76550169 201.29819617 162.87890625 206.37109375 C158.86423831 209.8515855 154.94326906 213.43910854 151 217 C123.35298707 241.96609046 128.63531276 236 74 236 C74 174.29 74 112.58 74 49 C50.9 49 27.8 49 4 49 C2.68 48.67 1.36 48.34 0 48 C0 32.16 0 16.32 0 0 Z " fill="#6C8ABE" transform="translate(0,0)"/>
<path d="M0 0 C15.51 0 31.02 0 47 0 C47 46.2 47 92.4 47 140 C28.52 140 10.04 140 -9 140 C-10.65 138.35 -12.3 136.7 -14 135 C-16.5833009 132.51942338 -19.1990318 130.07374348 -21.8125 127.625 C-22.48603516 126.99078125 -23.15957031 126.3565625 -23.85351562 125.703125 C-27.89834472 121.90988814 -32.00787559 118.20826769 -36.1940918 114.57177734 C-38.4878949 112.57535929 -40.74580582 110.54095959 -43 108.5 C-49.58043635 102.56450687 -56.26821014 96.76254386 -63 91 C-63.4125 91.38744385 -63.825 91.7748877 -64.25 92.17407227 C-78.23449831 105.29819617 -78.23449831 105.29819617 -84.12109375 110.37109375 C-88.13576169 113.8515855 -92.05673094 117.43910854 -96 121 C-109.7741652 133.43848858 -109.7741652 133.43848858 -114 137 C-114.58340149 137.51907425 -115.16680298 138.0381485 -115.7678833 138.57295227 C-118.55285183 140.35345193 -120.21448291 140.3632031 -123.50292969 140.34057617 C-125.15418854 140.34023628 -125.15418854 140.34023628 -126.83880615 140.33988953 C-128.02121887 140.32440567 -129.20363159 140.30892181 -130.421875 140.29296875 C-131.63699768 140.28872391 -132.85212036 140.28447906 -134.10406494 140.28010559 C-137.98626839 140.26330876 -141.86795336 140.22565338 -145.75 140.1875 C-148.38150292 140.17245452 -151.01301398 140.15876588 -153.64453125 140.14648438 C-160.09653117 140.11340185 -166.54822854 140.06319179 -173 140 C-173 138 -173 138 -171.7421875 136.73046875 C-170.81792969 135.96669922 -170.81792969 135.96669922 -169.875 135.1875 C-165.75383133 131.68561249 -161.77162975 128.05741638 -157.8125 124.375 C-157.21872559 123.82481201 -156.62495117 123.27462402 -156.01318359 122.70776367 C-150.87311419 117.92682261 -145.94658712 112.95623023 -141.05859375 107.91796875 C-139.66312572 106.4949262 -138.26762686 105.07191242 -136.87036133 103.65063477 C-135.90976271 102.66974066 -134.95275868 101.68531424 -133.99926758 100.69750977 C-132.61190561 99.26172661 -131.21043217 97.83962114 -129.80859375 96.41796875 C-128.98157959 95.57000732 -128.15456543 94.7220459 -127.30249023 93.84838867 C-125 92 -125 92 -121 92 C-120.78472656 91.12085938 -120.56945312 90.24171875 -120.34765625 89.3359375 C-118.76595305 85.42064899 -116.56572078 83.30318121 -113.4375 80.625 C-112.26580681 79.58328995 -111.09529701 78.54024779 -109.92578125 77.49609375 C-109.29623535 76.93905762 -108.66668945 76.38202148 -108.01806641 75.80810547 C-104.32597086 72.50013793 -100.73040234 69.08933012 -97.125 65.6875 C-96.42431396 65.03023926 -95.72362793 64.37297852 -95.00170898 63.69580078 C-91.10051016 60.02664524 -87.27958567 56.29327249 -83.50537109 52.49389648 C-81.81369138 50.81511151 -80.06498105 49.23189902 -78.25 47.6875 C-73.07523679 43.22579472 -68.04399824 38.60821162 -63 34 C-57.79896863 38.38624838 -52.80822941 42.9409808 -47.875 47.625 C-42.73341186 52.48607717 -37.58275232 57.33481577 -32.375 62.125 C-11.20479301 81.61799575 -11.20479301 81.61799575 -4.41796875 88.64453125 C-3.02302691 90.11130911 -3.02302691 90.11130911 -1 91 C-0.505 45.955 -0.505 45.955 0 0 Z " fill="#5A79AE" transform="translate(247,96)"/>
<path d="M0 0 C15.51 0 31.02 0 47 0 C47 45.54 47 91.08 47 138 C41.59598866 133.36799028 36.22139833 128.75622796 31.16723633 123.74633789 C26.97082792 119.61884411 22.71041647 116.01719781 17.91772461 112.59521484 C8.24245383 105.30502221 0.13834643 97.62983509 -1.66496944 85.17571449 C-2.87549965 72.89644855 -2.26993657 60.53834209 -1.64794922 48.24078369 C-1.35521604 41.82855037 -1.24837441 35.41065402 -1.10906982 28.99360657 C-0.87883162 19.31764744 -0.4187523 9.67783099 0 0 Z " fill="#6B89BD" transform="translate(247,96)"/>
<path d="M0 0 C53.64771785 -5.79494265 53.64771785 -5.79494265 68.58692932 5.03666687 C76.89228485 11.99718757 83.75732109 20.36433702 90.01464844 29.17602539 C92.65319076 32.77548107 95.69293278 35.57462685 99.11529541 38.42308044 C101.94348059 40.78940382 104.48791753 43.29951134 107 46 C107 46.66 107 47.32 107 48 C99.11646695 48.12677079 91.23319669 48.21433995 83.34887695 48.2746582 C80.66661546 48.29697994 77.9849458 48.33176794 75.30297852 48.37719727 C71.44790745 48.43784525 67.5937423 48.46621127 63.73828125 48.48828125 C61.93959343 48.52699089 61.93959343 48.52699089 60.10456848 48.56648254 C51.75513078 48.56929594 51.75513078 48.56929594 47.93554688 45.68969727 C46.97745117 44.35829712 46.97745117 44.35829712 46 43 C43.4166991 40.51942338 40.8009682 38.07374348 38.1875 35.625 C37.51396484 34.99078125 36.84042969 34.3565625 36.14648438 33.703125 C32.10165528 29.90988814 27.99212441 26.20826769 23.8059082 22.57177734 C21.5121051 20.57535929 19.25419418 18.54095959 17 16.5 C13.31670493 13.16803462 9.58731614 9.90335572 5.7890625 6.703125 C3.62061489 4.63883863 1.85244351 2.34824879 0 0 Z " fill="#4D6FA7" transform="translate(187,188)"/>
<path d="M0 0 C1.71431213 0.00212242 1.71431213 0.00212242 3.46325684 0.00428772 C7.09011525 0.009856 10.71691045 0.02240263 14.34375 0.03515625 C16.8124991 0.04017535 19.28124918 0.04473754 21.75 0.04882812 C27.78127133 0.05981504 33.81250615 0.0765214 39.84375 0.09765625 C38.156532 3.72579141 36.2518112 5.76679176 33.21875 8.41015625 C31.86910156 9.59544922 31.86910156 9.59544922 30.4921875 10.8046875 C29.61820312 11.56136719 28.74421875 12.31804687 27.84375 13.09765625 C26.51010729 14.26396925 25.17674624 15.43060444 23.84375 16.59765625 C23.20179688 17.15710938 22.55984375 17.7165625 21.8984375 18.29296875 C17.84405997 21.85403798 13.8486207 25.48113665 9.84375 29.09765625 C-3.9304152 41.53614483 -3.9304152 41.53614483 -8.15625 45.09765625 C-9.03135223 45.87626762 -9.03135223 45.87626762 -9.9241333 46.67060852 C-12.70910183 48.45110818 -14.37073291 48.46085935 -17.65917969 48.43823242 C-19.31043854 48.43789253 -19.31043854 48.43789253 -20.99505615 48.43754578 C-22.17746887 48.42206192 -23.35988159 48.40657806 -24.578125 48.390625 C-25.79324768 48.38638016 -27.00837036 48.38213531 -28.26031494 48.37776184 C-32.14251839 48.36096501 -36.02420336 48.32330963 -39.90625 48.28515625 C-42.53775292 48.27011077 -45.16926398 48.25642213 -47.80078125 48.24414062 C-54.25278117 48.2110581 -60.70447854 48.16084804 -67.15625 48.09765625 C-67.15625 46.09765625 -67.15625 46.09765625 -65.8984375 44.828125 C-65.28226562 44.31894531 -64.66609375 43.80976563 -64.03125 43.28515625 C-59.91008133 39.78326874 -55.92787975 36.15507263 -51.96875 32.47265625 C-51.37497559 31.92246826 -50.78120117 31.37228027 -50.16943359 30.80541992 C-45.13242139 26.12033562 -40.29866135 21.27064618 -35.57421875 16.26953125 C-33.8312125 14.46177344 -32.08770883 12.65449512 -30.34375 10.84765625 C-29.47943359 9.9246875 -28.61511719 9.00171875 -27.72460938 8.05078125 C-26.87060547 7.17421875 -26.01660156 6.29765625 -25.13671875 5.39453125 C-24.37254639 4.59370117 -23.60837402 3.79287109 -22.82104492 2.96777344 C-16.58296989 -1.41002361 -7.32977059 -0.03451277 0 0 Z " fill="#4C6EA6" transform="translate(141.15625,187.90234375)"/>
<path d="M0 0 C9.07065629 4.35990225 16.28293084 12.06288015 23.19921875 19.2265625 C25.99528376 21.9953298 28.90092445 24.56087905 31.87426758 27.13476562 C35.49820321 30.31460578 38.99527966 33.62748634 42.5 36.9375 C43.20769531 37.60201172 43.91539062 38.26652344 44.64453125 38.95117188 C49.52033993 43.54619816 54.2847468 48.24069861 59 53 C59.66 53.66 60.32 54.32 61 55 C41.2 55 21.4 55 1 55 C-0.94086692 51.11826616 -1.23667199 49.96154859 -1.13525391 45.86425781 C-1.11508209 44.84350159 -1.09491028 43.82274536 -1.0741272 42.77105713 C-1.04193085 41.67613953 -1.0097345 40.58122192 -0.9765625 39.453125 C-0.95153656 38.3267865 -0.92651062 37.200448 -0.90072632 36.03997803 C-0.81856463 32.44301085 -0.72195881 28.84659579 -0.625 25.25 C-0.56675663 22.81122046 -0.50945343 20.37241827 -0.453125 17.93359375 C-0.31299137 11.95542356 -0.16099754 5.97764272 0 0 Z " fill="#6683B6" transform="translate(185,133)"/>
</svg>
